<?xml version="1.0" encoding="UTF-8" standalone="no"?>
<!-- Created with Inkscape (http://www.inkscape.org/) -->

<svg
   width="120.65mm"
   height="90.487503mm"
   viewBox="0 0 120.65 90.487503"
   version="1.1"
   id="svg248"
   xml:space="preserve"
   xmlns="http://www.w3.org/2000/svg"
   xmlns:svg="http://www.w3.org/2000/svg"><defs
     id="defs245" /><g
     id="layer1"
     transform="translate(-33.545514,-83.524808)"><path
       d="m 33.545515,164.46085 v -7.54062 h 21.86781 q 1.00542,-9.04875 6.975085,-15.6468 5.969658,-6.59804 14.767057,-8.35752 L 69.866193,98.731739 H 50.134895 v -7.540626 h 18.348847 q 3.016251,0 5.592631,1.759486 2.576383,1.759476 3.204768,4.65005 l 9.04875,42.227501 h -2.639213 q -8.546047,0 -14.578547,5.96966 -6.032499,5.96967 -6.032499,14.5157 v 4.14734 z m 50.145163,9.55146 q -5.655474,0 -9.677138,-4.02166 -4.021672,-4.02167 -4.021672,-9.67714 0,-5.65547 4.021672,-9.67713 4.021664,-4.02167 9.677138,-4.02167 5.655463,0 9.677127,4.02167 4.021671,4.02166 4.021671,9.67713 0,5.65547 -4.021671,9.67714 -4.021664,4.02166 -9.677127,4.02166 z m 0,-7.54062 q 2.513539,0 4.335856,-1.82232 1.822318,-1.82232 1.822318,-4.33586 0,-2.51353 -1.822318,-4.33585 -1.822317,-1.82232 -4.335856,-1.82232 -2.513547,0 -4.335868,1.82232 -1.822317,1.82232 -1.822317,4.33585 0,2.51354 1.822317,4.33586 1.822321,1.82232 4.335868,1.82232 z m 46.626192,-7.41495 q -9.04875,0 -15.96099,-5.59263 -6.91224,-5.59263 -8.29469,-14.39002 H 93.242131 l -1.005414,-7.54063 h 13.824473 q 0.62843,-3.77031 2.26219,-7.1636 1.6338,-3.39327 4.3987,-5.78114 H 88.969115 L 87.20963,111.0481 h 29.6598 L 110.08286,91.065438 H 97.263802 v -7.540625 h 11.687968 q 2.76489,0 5.08991,1.508125 2.32504,1.508125 3.33045,4.147349 l 7.41495,21.490773 h 5.52979 q 9.92849,0 16.90356,7.03792 6.97509,7.03792 6.97509,16.96641 0,10.05416 -6.91224,17.21776 -6.91224,7.16359 -16.96641,7.16359 z m 0,-7.54062 q 6.78656,0 11.56229,-4.83857 4.77573,-4.83857 4.77573,-11.75081 0,-6.78656 -4.77573,-11.56229 -4.77573,-4.77573 -11.56229,-4.77573 h -2.51354 l 5.15276,14.20151 -7.03791,2.51354 -5.15277,-13.95016 q -3.39328,2.13651 -5.2156,5.84399 -1.82232,3.70747 -1.82232,7.72914 0,6.91224 4.83857,11.75081 4.83857,4.83857 11.75081,4.83857 z m -46.626192,8.79739 z m 46.500512,-25.2611 z"
       id="path369"
       style="fill:#906eff;fill-opacity:1;stroke-width:2.51353" /></g></svg>
